<?xml version="1.0" encoding="utf-8"?>
<!-- Generator: Adobe Illustrator 22.0.1, SVG Export Plug-In . SVG Version: 6.00 Build 0)  -->
<svg version="1.1" id="Layer_1" xmlns="http://www.w3.org/2000/svg" xmlns:xlink="http://www.w3.org/1999/xlink" x="0px" y="0px"
	 viewBox="0 0 1505.6 620.1" style="enable-background:new 0 0 1505.6 620.1;" xml:space="preserve">
<style type="text/css">
	.st0{fill:#FFFFFF;}
</style>
<g>
	<path class="st0" d="M144.1,325c2.3,0.8,4.5,1.7,6.7,1.8c16.9,4.2,31.1,11.7,46,19.1c21.4,11.3,38.7,28.5,51.2,51.7
		c8,16,10,35.5,3.7,57.7c-1.7,7.3-3.8,15.4-7.6,22.5c-1.3,3.1-3.6,7.8-6.2,11.2c-9.5,14.7-21.3,25.9-34.8,35.4
		c-6.2,5.6-13.9,8.2-21.2,9.3c-5.9,1.4-10.9,3.3-16,8c-4.6,3.9-8.8,6.3-14.2,9.7c-12.9,6.6-24.4,10.1-36.6,11
		c-18.2,1.7-36.4,0.6-50.3-8.4c-12.3-8-18.2-21.1-16.8-40.7c1.9-12.2,5-24.7,10.8-37.8c4.6-12.2,10.6-24.6,18.8-36.3
		c1.6-1.8,2.3-4.7,3.1-7c2.8-11,5-13.6,15-14.7c3.6-2.3,4.8-8.7,10.4-8.1c-2.3,1.9-3.9,3.7-7.4,6.6c3.4-0.1,5.5,0,6.8-0.3
		c0.8,3.3,1.4,5.9,2.9,9c1.1,1.8,1,3.9-0.4,7c-2.6,6.1-4.6,12.2-7.8,19.1c-4.5,10-7.1,19-6,29.1c0.1,6.2,1.4,11.4,2.3,18
		c0.5,4.7,3.2,7.5,8.1,7.7c5.7,0.7,12.3-0.3,18.5-3.1c11.2-4.8,23-10.4,33.4-18.5c10.4-8.1,21.7-15.6,32-24.3
		c7.5-6,15.4-13.4,21.4-22.4c4.7-6,5.4-11.7,2.5-15.1c-8.2-13.9-17.2-25.5-32-32.2c-24.2-11.4-51.1-20-77.8-27.9
		c-16.4-5-31.6-10.9-46.5-18.3c-17-7.6-30.9-19.4-42.4-32.4c-21-21.1-15.6-58.3-0.9-88.7c13.2-28,34.8-49.8,57.3-70.5
		c7-5.2,14.4-9,20.7-14c36.2-24,73-34.3,109.5-40.4c11.4-1.4,22.3-2,33.7-3.4c12-1.5,23.7-1.6,33.8,2.8c3.9,1.8,6.5,3.9,5.8,9.6
		c-0.3,1.5,0.1,3.4,0.5,4.7c0.1,3.4,0.9,6.7,0.4,10.2c-2.5,12.3-3.7,24.4-1.7,35.6c0.5,4.7-1.2,12-3.2,18
		c-1.3,5.8-4.3,10.7-5.8,15.9c-1.5,5.2-4,9.2-7.9,12.9c-6.4,5-11.4,9.7-18.1,13.4c-3.4,2.9-7.3,3.9-10.4,2.5
		c-10.7-1.5-21.6-1-32.3,0.3c-21.5,2.5-43.1,4.3-65.7,10.5c-6.4,2.2-13.4,4.6-19.4,8.2c-7.5,3.2-14.2,6.9-21,9.9
		c-44,23.1-8.5,50.3,19.1,61.5C120.1,314.3,132.4,319.5,144.1,325z"/>
	<path class="st0" d="M316.7,313.6c-8.9-10.9-14.3-25.1-18.3-40.1c-3.5-11-1.7-22.1,2.8-33.5c0.5-1.4,1.6-2.9,4.2-4
		c4.7-5.4,10.8-10.3,18.1-16c5.4-4.8,13.3-6.6,20.8-6.2c5.3-0.7,21.7,10.5,25.4,12.8c4.4,2.8,9,6.2,14,8.2c6.7,4.5,11.5,9.9,16,18.1
		c2.7,5,4.7,9.5,8,13.8c2.8,5.7,4.4,12.3,6.6,18.7c1.5,5.9,2.1,10.5,4.2,15.7c0.8,0.6,0.8,0.6,0.9,1.9c-3.5-10.3,1.3,4.6,0.9,6.6
		c0.4,8.1,3.4,15.1,2.4,22.7c-1.4,4.3,3.2,8.4,8.5,7.6c32.3-6.4,45.5-3.5,76.6-13.2c3.1-1.8,6.2-4.2,9.9-6.8
		c1.2-0.8,3.1-2.4,4.3-3.3c1.6,1.8,1.3,4.6,0.8,6c-1.5,3.6,5.3,4,3,7c-17,24-78.2,31.7-102.1,34.9c-0.7,0.1-1.3,0.2-2,0.3
		c-2,0.3-3.9,1.2-3.7,2.5c0.2,1.3-0.4,2.1-0.9,3.5c-0.5,11.5-5,23-8.1,34.9c-2.2,8.4-6.1,15-9.9,21.6c-2.1,4.3-4.1,9.4-7.7,12.6
		c-1.2,0.8-2.4,2.4-4.2,4c-1.2,0.8-3.1,2.4-3.4,4.5c-4.5,6.7-9.8,12.2-16.9,15.2c-1.3,0.2-4.5,2-6.3,3.6c-8.9,3.9-18.3,4.5-27.1,4.4
		c-12.1,0.3-21.3-7.2-29.4-17.6c-2.7-5-5.6-11.4-8.4-17.1c-3-11.8-5.3-23.6-5.7-36.4c-0.4-12.8,1.9-25.3,6.3-38
		c4-15.4,10.9-29.2,19.2-42.5c1.9-0.9,1.7-2.3,2.1-4.3C317.6,314.9,317.5,314.2,316.7,313.6z M392.1,276.3
		c-2.4-7.8-4.6-13.6-7.6-20.6c-2.9-6.4-6.3-11.3-11.5-14.7c-3-2.3-5.5-5.3-9.7-6.8c-4.4-2.8-8.1-5-13.1-7
		c-8.9-5.5-21.6,10.4-25.6,15.7c-14.5,27.7,7.5,59.8,26.6,75.5c24.4,35.2,57.8,17.1,43.7-26.3C395.5,286.6,394.7,280.6,392.1,276.3z
		 M350.7,413.8c-0.2,3.4,0.3,7.4,0.8,10.7c-1.1,1.5,0.3,2,1.1,3.2c1.8,3.1,4.9,6.1,8.4,7c0.7-0.1,0.7-0.1,1.2-0.8
		c0.6-0.8,1.8-1.6,2.4-2.4c9.7-13.5,15.5-29.8,20.1-46c2.6-5.8,3.1-11.9,4.4-16.8c-16.2-4.5-22.7,2.4-29.7,14.9
		C353.6,395.1,353.1,401.3,350.7,413.8z"/>
	<path class="st0" d="M713.9,317.9c1.5,16.7,6.6,10.4,31.1,5.1c8-1.7,19.8-5.7,31.3-18.3c5.7-6.3,13.4,0.7,17,3.8
		c0.1,2.7-7.9,16.5-9.2,17.9c-27.3,18.1-42,18.9-62.6,22.6c-16.5,4.9-17.4,13.6-22.8,27.3l-2.4,5.5c-1.6,8.1-6,14.4-9,20.6
		c-1.3,1.4-2.5,3.5-3.8,4.2l-6.3,8.4c-2.4,4.8-6.2,10.4-10.7,14l-4.4,5.6l-6.4,6.4c-2,0.8-4,0.9-6,0.3c-2.1-1.2-4.8-3.1-6.9-3.7
		c-0.8-2-0.9-4-1-6c-1.6-6-3.9-11.2-10-11.6c-2.8-1.2-4.9-3.8-7-5.7c-2.9-3.9-4.9-5.1-8.4-7c-6.2-3.7-8.1-14.4-3.2-23.3
		c2.4-6.2,5.5-9.7,9.4-12.6c3.8-3.5,8.4-6.5,13-8.7c7.8-5.8,15.1-6.1,23.6-10.6c4.6-2.9,7.7-7.8,10-15.3c3.8-17.6,7.9-43.3,9-61.5
		l-1.1-22.8c-0.1-1.3-0.1-2.7-0.9-4c-0.8-3.3-4.2-4.5-6.1-1.7c-1.3,0.7-1.9,1.4-2.5,3.5c-4.3,7.6-8.6,15.2-11.6,23.4
		c-9.1,19.9-17.4,41.1-26.5,60.4c-6.7,14.4-12.7,27.5-18,42.5c-8.8,24.6-30.4,49.8-37.8,76.4c-1.8,4.8-2.9,9.5-6.7,12.4
		c-3.3,1.5-4.4,6.9-4.2,10.9c0.2,4.7-0.2,10.1-1.3,14.2c-1.2,2.7-2.4,5.5-3.7,6.9c-3.8,4.9-4.9,8.3-6.8,11.7
		c-5.8,17.1-10.4,34.1-10.8,52.2c-0.3,8.1,0.1,16.1-1.5,24.2c-0.4,6.1-2.8,10.9-7.4,13.1c-3.2,2.2-5.8,5-7.5,10.4
		c-0.6,0.7-2.5,3.5-3.2,3.5c-2,0.1-2.4,4.8-3.7,6.9l-0.7,0c-10.6,2.5-17.7-5.1-22.3-17.7c-4.7-12.5-6.7-26.5-8-39.8
		c-3-32.1-2.5-62.9-0.1-95.3c0.7-12.8,2.7-26.3,4.1-38.4c1.6-20.9,5.3-41.9,9.7-61.5c5.9-29.8,12.5-59,19.8-87.5
		c1.7-6.8,4-12.9,5.6-21.1c7-20.5,12.6-42.2,19.6-63.4c2.8-10.2,7.6-21.9,11.8-32.1c3.2-2.8,6.6-3,10.1-0.5l16.6,9.2l0.7,0.6
		c10.6,11.5,17.4,26,20.4,45.9c1.8,10,1.7,21.4-0.4,32.9c-3.2,16.3-7,33.9-12.2,50.9c-3.5,10.9-6.8,24.5-10.2,36.7
		c-8.8,38,12.3,32.3,16.5,20.6c1.7-5.5,11.1-19.3,12.8-26.1l19.8-46.6c2.9-8.9,6-15.1,11-22c4.4-5.6,8.8-12.5,13.9-18.1
		c3.8-4.2,9.7-7.9,14.4-8.1l11.4-0.6c6-1.6,11.6,3.5,17.2,7.9c3.4,1.8,6.4,7.1,7.3,12.4c1,5.3,2.6,11.3,2.8,16l3.6,19.3L713.9,317.9
		z M638.2,374.7c-3.9,2.2-6.3,7-5.9,15.1c0.8,3.3,3,5.9,5,5.8c1.3-1.4,3.3-1.5,4.5-2.9c3.2-2.2,6.5-5,8.3-8.5
		c6.9-10.4,9-21.2,7.2-17.1C650.1,370.7,644,369.7,638.2,374.7z"/>
	<path class="st0" d="M933.2,244.8c23-19.1,48-23.4,70.8-7.6c9.3,17.2-1.8,56.9-6.6,74.1c-4.7,15.2-22.4,52-27.7,66.5
		c-6.5,41.3,49.5,3.5,59.9-4.8c0.7-0.6,24.8-15.7,25.6-17c7.7-8.4,14.4-8.1,22.2-17.1c6.4-7.8,10.9-19.6,19.2-26
		c11.1-8.2,6.6,3,0.8,12.1c-9.9,11.6-11.3,14.3-19.3,26.6c-3.6,5.2-11.9,11.6-13.6,18.9c-2.2,5.3-15.1,8.7-18.7,12.6
		c-4.2,5.2-9.2,10.3-12.8,16.2c-2.8,3.2-25.7,19.7-27.7,20.9c-23,19.8-84.1,21.8-73.3-41.4c5-22.6,41-79.3,49.9-99.1
		c2.2-4.6,3.7-8.6,5.3-13.2c1.5-3.3,1.7-7.3,1.8-11.3c-13.6-25.4-44.7-6-55.4,10.3c-2.1,1.2-5.6,4.4-7.7,8.4
		c-2.2,3.9-5,7.2-8.5,10.4c-8.5,9.7-27.5,31-36,40.7c-4.9,5.1-10.5,10.3-14.8,16.1c-6.4,8.4-39.9,68.7-44.9,77.2
		c-2.2,3.9-3.7,7.2-4.5,11.9c-0.8,4-2.3,7.3-3.8,11.2c-0.8,4-3.1,8.6-3.9,13.2c-0.9,6-3.9,13.2-8.7,15.7c-1.4,1.3-2.2,3.3-4.3,5.9
		c-1.3-0.1-2-0.1-4-0.2c-1.9-2.1-5.3-0.9-8.7-0.4c-5.4,0.4,1.3,1.4-3.4,1.2c-1.3-0.1-1.9-2.1-3.9-2.9c-1.9-3.4-5.1-6.3-7.6-9.7
		c-5.1-4.9-8.1-13.1-8.4-23.2c-18.6-80.6,39.9-208.1,64.3-274.1c11-20.3,21.2-40,33.5-59.6c14.5-24.8,29.6-49,46.6-69
		c10.7-13.6,21.9-25.2,34.3-34c30.4-21.5,75.2,43.5,80.1,70.6c3.8,6.2,5.9,18.4,1.5,28.2c-2.9,5.9-4-1.5-7.9-3.7
		c-2.7-0.8-4-1.5-5.3-2.2c-2.7-0.8-5.3-2.2-7.9-3c-3.3-0.8-6.7,0.4-10.3,4.2c-3.5,3.2-6.3,6.4-9.8,9.6
		c-10.5,8.9-25.3,25.7-32.5,37.5c-4.3,6.5-8.6,12.4-14.1,16.2c-2.1,1.9-2.9,5.2-5,7.2c-5.8,9.8-12.2,18.2-17.9,26.7
		c-5,7.8-9.4,15-13.7,22.9c-7.2,11.8-14.4,23.5-21,35.3c-5.2,11.2-11.7,21.6-16.2,32.8c-8.1,17.8-9.5,18.4-13.7,37
		c-0.8,17.4,38.2-31.2,42.6-39C897.7,274.7,923.4,253.7,933.2,244.8z"/>
	<path class="st0" d="M1134.7,255.6c0,0,0,0,0.7-0.6c2.3-2.4,3.7-2.9,5.8-4.1c7.5-0.5,25.5-10.6,31.7-5.9c1.7,2.9,8,7,10.3,9.9
		c2.3,3.6,2.4,8.4-0.3,14.8c-5,8.2-10.5,15.7-17.1,25.7c-1.8,3.8-3.5,7-4.4,9.6c-3.4,5.7-6.9,13.4-10.9,19
		c-3.6,7.7,11.3-16.3,9.2-9.7c-0.2,2-1.8,3.8-2.6,5.1c-6.8,12.7-6.5,10.1-8.5,22c-0.8,6.7-7.3,40.3-7.3,46.4
		c0.1,4.7,2.5,7.7,4.2,10.6c2.5,1.6,5.5,4.7,9.4,6.5c3,3,6.5,2.1,10.6,1.9c57.5-13.7,38.4-23.3,74.2-53.6c7-8,15.2-15.1,19.7-25.4
		c0.1-0.7,0.1-0.7,2.4-3.8c2.6,7-5.8,15.5,3.3,18.6c-16.8,23.7-31,59.2-55.1,70c-7.6,7.9-57.4,42.7-85.4,28.1
		c-9.7,2.3-17.3-8-26.8-13.1c-6.3-3.4-12.4-9.5-17.6-16.8c-2.3-9-4.6-18.7-3.6-27.4c-0.9-4.2-0.4-8.8,0-12.1
		c2.9-7.8,3.3-23.2,6.6-28.2c1.1-3.3,2.8-6.4,3.2-10.4c1.4-0.5,0.4-4,5.2-4.1c0.7,0.1,1.6-2.5,2.4-3.1c3.9-4.3,5-8.2,8.8-12.5
		c0,0-15.6,12.4-6.1,0c6.8-12.7,20.5-26,25.5-34.9c0.1-1.3,1.7-3.2,1.7-3.2c2.5-3.8,4.7-6.2,4-11c-0.4-2.7,0.6-5.3,3-9.1
		C1132.1,255.3,1132.6,256.1,1134.7,255.6z M1204.2,190c-1.6,1.8-3,3-4,5.6c-0.1,0.7-0.2,2-1.7,3.2c-2.2,1.8-4.5,4.2-7.6,7.2
		c-1.6,1.8-7.2,3.9-10.6,4.2c-1.3-0.8-3.4,0.3-4.9,1.5c-4.3,2.2-6.9,1.2-9.4-0.4c-1.8-1.6-3.2-1.7-5.2-1.9c-2.7-0.3-4.7-0.5-7.2-1.5
		c0.7-0.6,1.6-1.8,2.3-2.4c0.2-2,1.8-3.8,2.8-6.4c1.7-3.2,3.3-5,5.6-8.1c0.2-1.3,2.3-2.4,2.4-3.1c0.5-4,4.2-6.9,6.6-10.7
		c1.6-1.8,3.1-3.7,4.7-5.5c1.5-1.2,3-2.4,4.3-2.2c1.4-0.5,2.7-0.4,3.3,0.4c-0.2,1.3,1.2,1.5,2.6,1c1.4-0.5,2.1-1.1,2.7-0.4
		c2.5,1.6,5.8,2.7,8.4,3.6c4.4,2.5,7.4,6.2,9.5,11.2C1206.5,186.9,1205.6,188.8,1204.2,190z"/>
	<path class="st0" d="M1505.6,370.3c-1.4,4.5-10.6,19.3-14.4,21.4c-2.1,0.3-3.1,2.2-4.5,2.7c-3.2,2.9-5.6,5.2-8.7,7.4
		c-1.5,1.1-3.7,2.1-4.7,4c-2.6,3.6-5.6,5.2-9.2,6.6c-1.4,0.4-2.9,0.9-3.7,2.1c-4.7,4-10.7,7.1-15.3,10.4c-4.5,2.6-8.8,4-13.6,4.5
		c-6.2,0.3-11.5-0.5-17.1,0.6c-5,1.2-10.2,0.3-15.8,0.8c-2-0.3-4-0.7-5.9-1c-7.5-3.9-15.2-6.6-21-13c-0.6-0.8-1.8-1.6-3-2.5
		c-5.5-3.6-10.9-7.9-14-13.8c-5.7,1.8-10.8,3.7-15.3,6.3c-2.9,0.9-5.1,1.9-8,3.4c-0.7-0.1-1.4,0.4-1.4,0.4
		c-4.8,4.6-10.2,4.4-15.9,5.5c-9.7,1.1-18.9-0.4-26.8-6.4c-3-2.5-6.1-4.4-9.2-6.3c-17.9-11.1-26.1-27.4-24.7-48.2
		c0.4-10.8,4-20.4,10.2-28.9c6-7.8,12.1-15.7,19.9-21.9c0.1-0.7,0.9-1.2,1.6-1.8c10.8-11.8,23.4-22.6,35.3-32.9
		c8.6-6.7,17.6-12,28.5-16.4c1.4-0.4,4.2-0.7,6.2-0.3c4.1,0,8.2,0,12.8,0.7c0.7,0.1,1.3,0.2,2,0.3c3.6,2.6,8.9,3.5,13.3,5.6
		c1.2,0.9,2.4,1.8,3.7,2c3.2,1.2,5.8,1.6,6.7,4.5c0.5,0.8,1.2,0.9,1.2,0.9c3.3,0.5,5.4,4.3,8.7,4.8c1.3,0.2,2.5,1.1,3.1,1.9
		c3.3,4.6,7.4,8.7,9.3,13.7c0.3,2.1,0.8,3.5,1.1,5.6c0.3,6.2-1.6,9.9-8.1,12.2c-6.4,1.7-12.3,4.8-18.3,7.9c0,0,0,0-0.1,0.7
		c-8.5,6.1-18.2,11.3-25.5,18.9c-3.2,2.9-6.3,5.1-9.3,7.3c-7,5.6-12.9,12.1-19.3,18.5c-2.5,3-5.7,5.8-8.1,8.2
		c-1.5,1.1-2.4,2.3-3.3,3.5c-5.2,6.6-9,13.5-11.5,20.5c-0.8,0.6-0.2,1.3-0.4,2.6c1.4-0.4,2.2-1,3-1.6c7.7-5.5,16.1-10.9,25-15.6
		c4.5-2.7,8.4-5.4,11.8-9.6c1.7-1.8,4-3.4,6.3-5.1c4.7-4,9.5-7.9,13.6-12.7c5.8-6.5,11.6-13,17.6-20.2c6.1,0.3,10.6,1.7,13.8,7
		c1.1,1.5,2.2,3.1,3.3,4.6c3.7,6.7,3.2,13.4,2.8,20.1c-0.2,1.3-1,1.9-1.9,3.1c-3.6,5.5-8,11.6-12.3,17c-2.7,4.3-4.2,8.8-4.3,13.6
		c0.5,5.5,1.5,11.8,3.2,17.5c1,2.2,2.8,3.9,5.4,4.3c4.7,0.1,9.5,0.2,14.4-1c4.3-1.3,9.2-2.6,13.6-4.5c5.1-1.9,10.1-3.8,16-6.2
		c3.9-2.8,8.2-4.7,12.1-7.5c10-7.2,26.8-26.8,36.8-34c0.8-0.6,1.4-0.4,2.2-1C1499.9,363.3,1502.8,366.5,1505.6,370.3z"/>
</g>
</svg>
